<?xml version="1.0" encoding="utf-8"?>
<!-- Generator: Adobe Illustrator 25.2.1, SVG Export Plug-In . SVG Version: 6.00 Build 0)  -->
<svg version="1.1" id="Camada_1" xmlns="http://www.w3.org/2000/svg" xmlns:xlink="http://www.w3.org/1999/xlink" x="0px" y="0px"
	 viewBox="0 0 1000 1000" style="enable-background:new 0 0 1000 1000;" xml:space="preserve">
<style type="text/css">
	.st0{fill:#79C04E;}
	.st1{fill:#7AC04E;}
	.st2{fill:#0F210A;}
	.st3{fill:#A06632;}
	.st4{fill:#CA833F;}
	.st5{fill:#C19C42;}
	.st6{fill:#FAD056;}
	.st7{fill:#C1B79D;}
	.st8{fill:#F7F2B6;}
	.st9{fill:#CFA947;}
</style>
<g>
	<path class="st0" d="M608.27,521.84c-3.38,0-6.76,0.02-10.14-0.02c-0.74-0.01-0.94,0.2-0.94,0.93c0.04,3.38,0.02,6.76,0.02,10.13
		c-0.42,0.17-0.87,0.09-1.3,0.09c-25.11,0-50.21,0-75.32,0c-1.66,0-1.46,0.16-1.46-1.48c-0.01-6.55-0.01-13.1,0.01-19.66
		c0-0.42-0.15-0.88,0.15-1.27c3.52,0.01,7.03,0.03,10.55,0.03c15.75,0,31.5-0.02,47.25,0.03c1.26,0,1.5-0.37,1.48-1.53
		c-0.07-3.95-0.02-7.91-0.03-11.86c0-0.43,0.09-0.88-0.11-1.3c-0.41-0.24-0.86-0.12-1.29-0.12c-18.87-0.01-37.74-0.01-56.61-0.01
		c-1.57,0-1.39,0.15-1.39-1.43c0-16.38,0-32.76,0-49.14c0-1.6-0.18-1.45,1.5-1.45c2.8-0.01,5.6,0,8.4-0.01
		c0.39,0,0.8,0.12,1.17-0.12c0.03-3.23,0.11-6.47,0.06-9.7c-0.02-1.05,0.25-1.32,1.31-1.32c25.03,0.03,50.06,0.03,75.09,0.02
		c0.52,0,1.04-0.02,1.56-0.03c0.29,0.35,0.15,0.77,0.15,1.15c0.01,6.63,0.01,13.26,0.01,19.89c0,1.36,0,1.37-1.34,1.37
		c-18.86,0-37.72,0-56.59,0.01c-0.47,0-0.96-0.13-1.41,0.12c-0.03,4.73-0.07,9.46-0.07,14.18c0,1.34-0.15,2.7,0.1,4.04
		c0.41,0.24,0.86,0.12,1.29,0.12c18.81,0.01,37.63,0,56.44,0.01c1.8,0,1.56-0.19,1.56,1.62c0.01,15.09,0,30.18,0,45.27
		C608.35,520.89,608.45,521.38,608.27,521.84z"/>
	<path class="st1" d="M426.42,432.66c0.52,0.01,1.04,0.03,1.56,0.03c24.95,0,49.9,0.01,74.85-0.03c1.19,0,1.53,0.26,1.52,1.49
		c-0.06,6.91-0.02,13.82-0.01,20.74c-0.42,0.35-0.92,0.17-1.38,0.17c-18.88,0.01-37.76,0.01-56.64,0.02c-0.47,0-0.96-0.13-1.41,0.12
		c-0.08,6.07-0.14,12.15,0.03,18.22c0.41,0.24,0.86,0.12,1.29,0.12c13.98,0.01,27.96,0.01,41.94,0.01c0.43,0,0.88-0.09,1.3,0.09
		c0,7.37,0,14.74,0,22.11c-0.42,0.17-0.87,0.09-1.3,0.09c-13.98,0.01-27.96,0-41.94,0.01c-0.43,0-0.88-0.12-1.29,0.12
		c-0.03,3.91-0.07,7.82-0.09,11.73c-0.01,2.93,0,2.93,2.87,2.93c18.34,0,36.68,0,55.02,0c1.79,0,1.56-0.21,1.57,1.62
		c0.02,6.87,0.02,13.73,0.03,20.6c-0.39,0.3-0.85,0.15-1.27,0.15c-28.89,0.01-57.78,0.01-86.67,0c-0.43,0-0.88,0.09-1.3-0.09
		c0-23.05,0.01-46.1-0.02-69.16c0-1.07,0.23-1.4,1.35-1.38c3.23,0.06,6.47-0.03,9.7-0.06c0.24-0.41,0.12-0.86,0.12-1.29
		c0.01-9.02,0-18.05,0.01-27.07C426.28,433.51,426.12,433.05,426.42,432.66z"/>
	<path class="st2" d="M322.26,532.89c0-3.38-0.02-6.77,0.02-10.15c0.01-0.74-0.18-0.93-0.92-0.92c-3.39,0.04-6.77,0.02-10.16,0.02
		c-0.17-0.42-0.09-0.87-0.09-1.3c0-25.09,0-50.19,0-75.28c0-1.6-0.18-1.45,1.49-1.45c2.8-0.01,5.6,0,8.4-0.01
		c0.39,0,0.8,0.12,1.17-0.12c0.21-3.23,0.1-6.46,0.06-9.68c-0.01-1.15,0.36-1.33,1.39-1.33c22.56,0.03,45.13,0.02,67.69,0.02
		c0.48,0,0.96-0.01,1.44-0.02c0.32,0.34,0.16,0.76,0.16,1.15c0.01,6.67-0.01,13.34,0.03,20.01c0.01,0.99-0.26,1.26-1.25,1.26
		c-16.43-0.03-32.86-0.02-49.29-0.02c-0.47,0-0.96-0.12-1.41,0.12l0,0c-0.23,0.37-0.12,0.78-0.12,1.17
		c-0.01,17.65-0.01,35.3,0,52.96c0,0.39-0.11,0.8,0.12,1.17c0.29,0.2,0.62,0.12,0.93,0.12c19.3,0,38.61,0,57.91,0
		c0.12,0,0.24-0.01,0.36-0.02c0.32,0.34,0.16,0.76,0.16,1.15c0.01,6.67-0.01,13.34,0.03,20.02c0.01,0.99-0.25,1.26-1.25,1.26
		c-25.27-0.03-50.53-0.02-75.8-0.03C322.96,532.98,322.6,533.05,322.26,532.89z"/>
	<path class="st1" d="M623.12,454.94c0-7.03,0.02-14.05-0.02-21.08c-0.01-0.95,0.25-1.19,1.2-1.19c28.97,0.03,57.94,0.03,86.9,0
		c0.94,0,1.2,0.24,1.2,1.19c-0.04,7.03-0.02,14.05-0.02,21.08c-0.41,0.25-0.86,0.12-1.29,0.12c-9.04,0.01-18.07,0-27.11,0.01
		c-0.43,0-0.88-0.12-1.29,0.12c-0.02,0.4-0.06,0.79-0.06,1.19c0,25.5,0,51.01,0,76.51c-0.3,0.15-0.63,0.09-0.94,0.09
		c-9.29,0-18.58,0-27.87,0c-0.32,0-0.64,0.06-0.94-0.09c0-25.5,0-51.01,0-76.51c0-0.4-0.04-0.79-0.06-1.19
		c-0.41-0.24-0.86-0.12-1.29-0.12c-9.04-0.01-18.07,0-27.11-0.01C623.98,455.06,623.53,455.18,623.12,454.94z"/>
	<path class="st3" d="M137.74,454.96c-4.38-4.25-8.76-8.49-13.14-12.74c-1.85-1.8-2.95-1.84-4.8-0.1
		c-4.18,3.94-8.35,7.88-12.52,11.82c-0.65,0.61-1.23,1.26-1.29,2.21c-0.63-0.04-0.82-0.58-1.07-1.01c-3-5.06-5.99-10.13-9.02-15.17
		c-0.37-0.62-0.65-1.27-0.39-2.02c-0.22-0.52,0.13-0.87,0.4-1.22c1.07-1.36,2.16-2.71,3.25-4.06c0.49-0.72,1.26-0.6,1.96-0.59
		c2.44,0.05,4.85-0.09,7.2-0.88c4.72-1.6,7.35-5.12,7.51-10.1c0.07-2.09-0.26-4.13-0.72-6.15c-0.13-0.57-0.37-1.16,0.1-1.71
		c1.03-1.74,2.63-3.04,3.66-4.75c1.24-2.06,3.13-2.41,5.24-2.43c0.32,0,0.63-0.05,0.95-0.08c0.41-0.13,0.86,0.05,1.26-0.15
		c1.18-0.02,2.36-0.04,3.53-0.07c0.66-0.2,1.35,0.06,2.01-0.17c1.01,0.01,2.03,0.02,3.04,0.03c0.6,0.28,0.66,0.86,0.78,1.4
		c1.78,8.11,3.48,16.23,5.22,24.35c2.15,9.99,4.27,19.98,6.41,29.97c0.17,0.81,0.48,1.62,0.26,2.47c-0.47,0.71-0.81,0.1-1.14-0.15
		c-1.58-1.17-2.86-2.65-4.27-4c-1.26-1.21-2.4-2.55-3.81-3.62C138.03,455.78,137.64,455.49,137.74,454.96z"/>
	<path class="st4" d="M189.34,455.92c-0.36-0.96-1.06-1.66-1.79-2.34c-4.07-3.83-8.14-7.67-12.2-11.52
		c-1.71-1.62-2.83-1.61-4.51,0.01c-3.93,3.8-7.88,7.59-11.82,11.4c-0.48,0.47-0.92,0.99-1.38,1.48c-0.09,0.56-0.53,0.89-0.91,1.21
		c-2.46,2.04-4.57,4.43-6.86,6.63c-0.46,0.44-0.95,0.85-1.5,1.18c-0.3,0.18-0.6,0.27-0.74-0.2c0.2-2.56,0.92-5.02,1.45-7.51
		c2.63-12.26,5.23-24.52,7.86-36.78c0.89-4.14,1.79-8.27,2.66-12.42c0.22-1.06,0.71-1.42,1.8-1.4c3.52,0.07,7.03,0.02,10.55,0.03
		c0.35,0,0.72-0.09,1.06,0.1c0.7-0.01,1.13,0.42,1.55,0.92c1.88,2.27,3.77,4.53,5.66,6.79c0.46,0.66,0.09,1.32-0.04,1.95
		c-0.5,2.56-0.82,5.1-0.33,7.71c0.72,3.82,2.93,6.36,6.51,7.78c2.45,0.97,5.01,1.24,7.63,1.16c0.63-0.02,1.4-0.22,1.81,0.56
		c0.96,1.21,1.88,2.45,2.9,3.6c0.63,0.71,1.02,1.47,1.13,2.4c-0.62,1.97-1.9,3.57-2.91,5.33c-2.03,3.52-4.15,6.98-6.21,10.48
		C190.38,455.01,190.28,455.89,189.34,455.92z"/>
	<path class="st5" d="M95.52,437.95c0.03,1.5,1.09,2.53,1.78,3.71c2.75,4.7,5.55,9.37,8.33,14.04c0.1,0.17,0.25,0.3,0.38,0.45
		c0.03,2.43,0.11,4.87,0.05,7.3c-0.03,1.31,0.48,2.16,1.53,2.88c5.85,4.03,11.66,8.1,17.52,12.11c1.28,0.87,1.84,1.91,1.87,3.47
		c0.11,7.02,0.21,14.04,0.53,21.05c0.16,3.51,0.05,7.02,0.34,10.52c0.11,1.29-0.25,2.42-1.54,2.95c-1.29,0.52-2.34,0.09-3.34-0.88
		c-6.34-6.2-12.71-12.36-19.08-18.53c-0.25-0.25-0.47-0.55-0.85-0.62c-0.7-1.15-1.92-1.75-2.87-2.64c-1.31-1.23-2.23-2.53-1.96-4.42
		c0.06-0.42-0.04-0.87-0.06-1.31c-0.2-0.65,0.08-1.33-0.17-1.98c-0.02-0.78-0.05-1.56-0.07-2.34c-0.18-0.57,0.06-1.19-0.16-1.76
		c-0.02-0.77-0.05-1.54-0.07-2.32c-0.2-0.65,0.08-1.33-0.17-1.98c-0.02-0.78-0.05-1.56-0.07-2.34c-0.18-0.57,0.06-1.19-0.16-1.76
		c-0.02-0.77-0.05-1.54-0.07-2.32c-0.2-0.65,0.08-1.33-0.17-1.98c-0.02-0.78-0.05-1.56-0.07-2.34c-0.18-0.57,0.06-1.19-0.16-1.76
		c-0.02-0.77-0.05-1.54-0.07-2.32c-0.2-0.65,0.08-1.33-0.17-1.98c-0.02-0.78-0.05-1.56-0.07-2.34c-0.18-0.57,0.06-1.19-0.16-1.76
		c-0.02-0.77-0.05-1.54-0.07-2.32c-0.2-0.65,0.08-1.33-0.17-1.98c-0.02-0.78-0.05-1.56-0.07-2.34c-0.18-0.57,0.06-1.19-0.16-1.76
		c-0.02-0.77-0.05-1.54-0.07-2.32c-0.2-0.65,0.08-1.33-0.17-1.98c-0.02-0.78-0.05-1.56-0.07-2.34c-0.18-0.57,0.06-1.19-0.16-1.76
		C95.49,439.32,95.08,438.59,95.52,437.95z"/>
	<path class="st6" d="M189.34,455.92c1.48-1.83,2.46-3.96,3.67-5.95c2.21-3.63,4.33-7.31,6.49-10.96c0.08-0.13,0.21-0.23,0.32-0.35
		c0.02,0.39,0.04,0.78,0.06,1.17c-0.26,0.37,0,0.82-0.19,1.21c-0.02,2.4-0.43,4.78-0.29,7.19c-0.26,0.37,0,0.82-0.19,1.21
		c-0.02,2.4-0.43,4.78-0.29,7.19c-0.26,0.37,0,0.82-0.19,1.21c-0.02,2.4-0.43,4.78-0.29,7.19c-0.26,0.37,0,0.82-0.19,1.21
		c-0.02,2.4-0.43,4.78-0.29,7.19c-0.26,0.37,0,0.82-0.19,1.21c-0.02,2.4-0.43,4.78-0.29,7.19c-0.26,0.37,0,0.82-0.19,1.21
		c-0.17,2.61-0.22,5.23-0.5,7.84c-0.08,0.73-0.38,1.26-0.86,1.77c-1.15,1.21-2.48,2.24-3.5,3.59c-0.04,0.09-0.11,0.14-0.21,0.14
		c-2.68,2.21-5.03,4.78-7.54,7.17c-4.25,4.05-8.43,8.17-12.65,12.25c-0.96,0.93-2.1,1.15-3.16,0.65c-1.12-0.54-1.47-1.48-1.44-2.65
		c0.13-4.67,0.22-9.33,0.36-14c0.18-6.14,0.41-12.27,0.57-18.41c0.03-1.27,0.63-2.05,1.62-2.73c5.91-4.08,11.79-8.2,17.71-12.26
		c1.11-0.76,1.58-1.7,1.58-3C189.28,460.87,189.32,458.39,189.34,455.92z"/>
	<path class="st7" d="M115.21,413.24c0.28,1.68,0.64,3.36,0.83,5.05c0.41,3.63,0.03,7.1-2.49,10c-2.01,2.31-4.7,3.32-7.61,3.89
		c-1.74,0.34-3.49,0.28-5.24,0.27c-0.53,0-1.03,0.06-1.52,0.23c-3.57-2.72-6.93-5.67-10.01-8.93c-4.9-5.17-8.59-11.03-10.1-18.09
		c-0.09-0.42-0.07-0.87-0.1-1.3c-0.22-0.38,0.06-0.84-0.2-1.21c0-1.66,0-3.33,0-4.99c0.26-0.37-0.02-0.83,0.2-1.21
		c0.45-4.13,2.04-7.85,4.12-11.4c1.45-2.48,3.31-4.64,5.17-6.81c0.36-0.42,0.73-0.92,1.4-0.65c0.72,0.29,0.6,0.95,0.6,1.54
		c-0.27,0.55,0.06,1.17-0.21,1.72c0,0.32,0,0.65,0,0.97c0.28,0.62-0.08,1.32,0.21,1.94c0.22,2.72,1.29,5.15,2.61,7.48
		c3.36,5.95,8.12,10.67,13.3,15.03c2.53,2.12,5.16,4.1,7.9,5.95C114.41,412.94,114.74,413.24,115.21,413.24z"/>
	<path class="st8" d="M195.8,432.66c-0.84-0.39-1.73-0.17-2.59-0.17c-2.21,0-4.36-0.31-6.45-1.04c-4.69-1.62-7.39-5.41-7.5-10.4
		c-0.06-2.58,0.52-5.05,0.97-7.55c0.94-1.24,2.38-1.83,3.59-2.7c4.53-3.27,8.79-6.86,12.56-10.98c3.37-3.68,6.34-7.67,7.98-12.48
		c0.4-1.17,0.64-2.37,0.83-3.59c0.29-0.45-0.04-0.98,0.21-1.43c0-0.33,0-0.65,0-0.98c-0.25-0.45,0.08-0.99-0.22-1.43
		c-0.02-0.2,0.01-0.42-0.08-0.59c-0.29-0.55-0.09-0.94,0.38-1.2c0.47-0.26,0.81,0.06,1.13,0.39c2.11,2.13,3.94,4.47,5.5,7.03
		c2.32,3.81,3.88,7.9,4.36,12.36c0.26,0.53-0.09,1.15,0.22,1.68c0,0.72,0,1.43,0,2.15c-0.31,0.53,0.05,1.14-0.22,1.67
		c-0.65,5.91-3.09,11.07-6.59,15.78c-3.66,4.93-8.16,9.03-13.01,12.76C196.54,432.19,196.16,432.41,195.8,432.66z"/>
	<path class="st9" d="M173.02,405.79c-3.84,0-7.67,0.02-11.51-0.01c-0.86-0.01-1.29,0.13-1.5,1.16c-2.79,13.21-5.67,26.4-8.52,39.6
		c-1.21,5.59-2.4,11.18-3.59,16.77c-0.06,0.27-0.03,0.56-0.04,0.83c-0.14,0.3-0.31,0.32-0.49,0.04c0-2.13-0.7-4.15-1.13-6.2
		c-1.92-9.17-3.88-18.33-5.84-27.5c-1.62-7.57-3.25-15.14-4.89-22.71c-0.16-0.73-0.2-1.5-0.61-2.17c1.64-0.2,2.37-1.6,3.34-2.63
		c1.49-1.57,2.85-3.26,4.27-4.9c1.21-1.4,2.51-2.73,3.62-4.21c1.17-1.55,1.39-1.61,2.61-0.2c3.11,3.62,6.25,7.2,9.36,10.82
		c0.68,0.79,1.44,1.12,2.5,1.1c3.72-0.05,7.43-0.02,11.15-0.01C172.18,405.58,172.65,405.44,173.02,405.79z"/>
	<path class="st2" d="M511.25,574.35c0.3-1.39,1.16-2.19,2.58-2.37c1.8-0.24,3.04,0.54,3.75,2.21c1.36-1.38,3-1.96,4.78-2.29
		c0.72-0.11,1.43-0.1,2.15-0.01c1.86,0.36,3.49,1.14,4.75,2.59c0.36,0.42,0.64,0.45,1.04-0.02c1.31-1.54,3.08-2.22,5.01-2.56
		c0.72-0.12,1.43-0.1,2.15-0.01c4.15,0.87,6.42,3.95,6.53,7.97c0.23,1.19-0.11,2.42,0.19,3.61c0.02,1.12,0.04,2.23,0.06,3.35
		c0.19,1.14-0.1,2.3,0.16,3.43c0.03,1.17,0.06,2.35,0.09,3.52c0.19,1.12-0.12,2.26,0.17,3.38c0.02,1.11,0.04,2.22,0.06,3.33
		c0.21,1.14-0.1,2.3,0.17,3.44c-0.04,1.14,0.14,2.31-0.62,3.31c-0.91,1.19-2.13,1.63-3.57,1.35c-1.4-0.27-2.04-1.29-2.32-2.59
		c-0.19-0.87,0.12-1.78-0.17-2.65c-0.02-1.27-0.04-2.55-0.06-3.82c-0.22-1.35,0.12-2.74-0.18-4.09c-0.02-1.27-0.04-2.55-0.06-3.82
		c-0.22-1.35,0.12-2.74-0.18-4.09c-0.02-1.28-0.04-2.55-0.06-3.83c-0.2-1.2,0.12-2.42-0.18-3.61c-0.23-1.78-1.01-2.17-2.42-1.11
		c-1.17,0.88-2.26,1.86-3.42,2.75c-0.51,0.4-0.41,0.9-0.41,1.4c0,7.38-0.07,14.77,0.04,22.15c0.03,2.27-2.69,4.3-5.03,2.87
		c-1.05-0.64-1.45-1.57-1.45-2.74c0-8.26,0-16.53,0-24.79c0-0.43,0.07-0.86-0.14-1.29c-0.36-0.76-1.46-1.26-2.04-0.77
		c-1.62,1.37-3.37,2.61-4.82,4.19c-0.24,0.41-0.12,0.86-0.12,1.29c-0.01,6.97,0,13.93-0.01,20.9c0,0.43,0.07,0.88-0.07,1.3
		c-1.08,2.35-2.84,3.01-4.96,1.95c-0.86-0.43-1.08-1.18-1.37-1.95c-0.08-0.23-0.06-0.47-0.06-0.71c0-10.15,0-20.3,0-30.45
		C511.2,574.83,511.18,574.59,511.25,574.35z"/>
	<path class="st2" d="M815.82,571.95c2.44,0,4.88-0.01,7.32,0c1.95,0.01,3.42,1.43,3.39,3.26c-0.03,1.82-1.41,3.16-3.35,3.17
		c-4.32,0.02-8.64,0.03-12.95-0.01c-1.33-0.01-2.4,0.4-3.38,1.25c-1.53,1.34-3.08,2.67-4.65,3.96c-1,0.82-1.48,1.86-1.48,3.12
		c-0.01,2.48,0,4.95-0.01,7.43c0,0.93,0.3,1.72,1.02,2.33c1.91,1.63,3.82,3.28,5.74,4.9c0.84,0.71,1.86,0.85,2.92,0.85
		c4.24-0.02,8.48-0.02,12.71,0c1.74,0.01,3.11,1.19,3.27,2.73c0.18,1.74-0.71,3.24-2.27,3.6c-0.73,0.16-1.51,0.09-2.27,0.1
		c-1.77,0.01-1.77,0-1.77,1.72c0,2.76,0.01,5.51,0,8.27c-0.01,2.44-1.24,3.71-3.67,3.71c-4.2,0.01-8.4,0.02-12.59-0.02
		c-1.61-0.02-2.93-1.26-3.12-2.77c-0.2-1.62,0.78-3.17,2.32-3.6c0.38-0.1,0.79-0.11,1.18-0.11c2.8-0.01,5.6-0.03,8.4,0.01
		c0.74,0.01,1.05-0.13,1.02-0.96c-0.07-1.8-0.05-3.6-0.01-5.39c0.02-0.68-0.2-0.86-0.87-0.87c-1.75-0.03-3.51,0.18-5.26-0.16
		c-1.57-0.31-2.95-0.97-4.15-2.01c-2.11-1.83-4.23-3.65-6.33-5.49c-1.89-1.65-2.75-3.8-2.78-6.26c-0.05-3.08-0.05-6.15,0-9.23
		c0.03-2.17,0.84-4.09,2.42-5.56c2.28-2.12,4.64-4.16,7.04-6.14c1.59-1.3,3.49-1.87,5.57-1.83
		C811.42,571.98,813.62,571.95,815.82,571.95z"/>
	<path class="st2" d="M614,578.5c-1.14-0.28-2.29-0.07-3.44-0.12c-1.42-0.06-2.51-0.95-2.83-2.36c-0.13-0.56-0.12-1.11-0.01-1.67
		c0.67-1.97,1.27-2.37,3.36-2.41c1.02-0.02,2.37,0.45,2.99-0.18c0.61-0.62,0.18-1.97,0.17-2.99c-0.04-5.02,3.78-9.66,9.61-10.54
		c0.41-0.16,0.87,0.04,1.28-0.17c2.51,0.01,5.03,0.04,7.54,0.01c1.83-0.02,3.25,0.55,3.95,2.37c0.1,0.64,0.1,1.27,0,1.91
		c-0.45,1.03-1.2,1.75-2.22,2.21c-2.55,0.17-5.1,0.02-7.66,0.08c-0.43,0.01-0.88-0.09-1.3,0.1c-2.46-0.15-4.85,2.25-4.74,4.83
		c0.11,2.38,0.02,2.38,2.43,2.38c1.28,0,2.55-0.01,3.83,0c1.9,0.01,3.29,1.3,3.35,3.11c0.06,1.71-1.44,3.26-3.3,3.31
		c-1.76,0.05-3.52,0.07-5.27-0.02c-0.94-0.05-1.09,0.28-1.09,1.13c0.03,8.5,0.03,16.99,0.02,25.49c0,2.96-2.72,4.58-5.23,3.16
		c-0.77-0.44-1.01-1.17-1.25-1.92c-0.12-0.43-0.06-0.87-0.06-1.31c0-8.38,0-16.75-0.01-25.13C614.12,579.36,614.24,578.91,614,578.5
		z"/>
	<path class="st2" d="M400.24,454.94c0-11.1,0-22.2,0-33.3c0.29-0.21,0.62-0.12,0.93-0.12c4.31-0.01,8.62,0.02,12.94-0.02
		c0.88-0.01,1.15,0.2,1.14,1.12c-0.03,10.45-0.02,20.91-0.02,31.36c0,0.64,0.05,1.13-0.89,1.12c-4.51-0.05-9.02-0.02-13.53-0.02
		C400.61,455.06,400.41,455.07,400.24,454.94z"/>
	<path class="st2" d="M732.33,606.23c-0.64,1.69-1.84,2.44-3.66,2.42c-4.92-0.06-9.83-0.01-14.75-0.08
		c-1.83-0.03-3.38-0.92-4.75-2.07c-2.21-1.85-4.43-3.7-6.54-5.66c-1.43-1.33-2.35-3.1-2.41-5.06c-0.12-3.83-0.07-7.66,0-11.49
		c0.03-1.79,1.06-3.21,2.24-4.42c1.72-1.76,3.7-3.25,5.56-4.86c1.27-1.1,2.5-2.15,4.12-2.63c0.91-0.27,1.83-0.43,2.79-0.43
		c4.64,0.02,9.27,0.06,13.91-0.02c2.1-0.04,3.59,1.43,3.59,3.14c0,1.89-1.17,3.32-3.61,3.31c-4.24,0-8.48,0.03-12.71-0.02
		c-1.32-0.02-2.39,0.41-3.36,1.24c-1.54,1.33-3.05,2.68-4.61,3.98c-1.03,0.86-1.49,1.93-1.49,3.24c0,2.4,0.01,4.79,0,7.19
		c-0.01,1.02,0.33,1.87,1.11,2.53c1.86,1.58,3.7,3.16,5.56,4.74c0.83,0.71,1.83,0.91,2.9,0.91c4.08-0.01,8.16,0.04,12.23-0.02
		c1.85-0.03,3.16,0.63,3.86,2.38C732.45,605.11,732.43,605.67,732.33,606.23z"/>
	<path class="st2" d="M669.9,571.89c1.16,0.36,1.87,1.21,2.44,2.22c0.16,0.43,0.08,0.87,0.08,1.3c0.01,8.46,0,16.91,0.01,25.37
		c0,0.43-0.13,0.88,0.12,1.29c1.99,0.03,3.99,0.07,5.98,0.09c1.98,0.02,3.59,1.39,3.55,3.18c-0.03,1.66-1.16,3.24-3.48,3.25
		c-6.6,0.02-13.19,0.03-19.79,0.03c-1.08,0-2.18-1.12-2.62-2.63c-0.12-0.4-0.12-0.79,0-1.19c0.42-1.93,1.45-2.68,3.43-2.65
		c1.84,0.03,3.68-0.01,5.52,0.02c0.56,0.01,0.75-0.14,0.75-0.73c-0.02-7.43-0.02-14.86,0-22.29c0-0.66-0.22-0.79-0.82-0.78
		c-1.8,0.04-3.61-0.09-5.39,0.04c-1.87,0.14-3.24-1.1-3.41-2.78c-0.19-1.87,0.72-3.43,2.62-3.74
		C662.55,571.8,666.22,571.78,669.9,571.89z"/>
	<path class="st2" d="M578.49,602.07c1.99,0.03,3.99,0.14,5.98,0.07c1.91-0.07,3.51,1.37,3.55,3.19c0.03,1.66-1.17,3.27-3.57,3.27
		c-6.55,0-13.11,0.02-19.66,0.02c-1.49,0-3.09-2.23-2.66-3.69c0.71-2.39,1.21-2.76,3.66-2.77c1.99-0.01,3.99-0.06,5.98-0.09
		c0.19-0.24,0.12-0.53,0.12-0.81c0-7.32,0-14.64,0-21.95c0-0.27,0.07-0.56-0.12-0.81c-2.06-0.28-4.13-0.07-6.19-0.11
		c-1.81-0.03-3.22-1.05-3.37-2.54c-0.22-2.24,0.67-3.58,2.61-3.97c3.67-0.08,7.35-0.1,11.02,0.01c1.15,0.37,1.88,1.19,2.44,2.22
		c0.16,0.43,0.08,0.87,0.08,1.3c0.01,8.46,0,16.91,0.01,25.37C578.38,601.21,578.25,601.66,578.49,602.07z"/>
	<path class="st2" d="M863.58,568.12c-1.11,0.14-2.09-0.13-3.09-0.48c-2.71-0.95-5.44-1.82-8.16-2.75
		c-0.77-0.26-1.44-0.24-2.15,0.23c-1.3,0.86-2.63,1.65-3.97,2.45c-1.8,1.08-3.66,0.68-4.69-0.97c-1.04-1.67-0.56-3.46,1.25-4.59
		c1.52-0.95,3.1-1.8,4.58-2.81c1.96-1.34,4.06-1.32,6.18-0.68c2.97,0.9,5.9,1.91,8.83,2.94c0.76,0.26,1.34,0.2,2.01-0.24
		c1.33-0.88,2.71-1.68,4.08-2.49c1.82-1.07,3.62-0.67,4.65,1.01c1.03,1.69,0.55,3.42-1.29,4.57c-1.56,0.97-3.15,1.88-4.69,2.86
		C866.02,567.88,864.88,568.36,863.58,568.12z"/>
	<path class="st2" d="M578.32,562.11c-0.47,1.3-1.36,2.12-2.71,2.45c-1.44,0.12-2.87,0.12-4.31,0c-1.43-0.08-2.24-0.93-2.69-2.21
		c-0.13-1.43-0.09-2.87-0.02-4.3c0.25-1.42,0.94-2.45,2.47-2.71c1.68-0.07,3.35-0.12,5.03,0.03c1.03,0.44,1.76,1.18,2.22,2.2
		C578.42,559.08,578.4,560.6,578.32,562.11z"/>
	<path class="st2" d="M662.66,557.81c0.29-1.34,1.06-2.21,2.45-2.47c1.68-0.07,3.35-0.12,5.03,0.03c1.03,0.44,1.77,1.17,2.21,2.2
		c0.12,1.51,0.1,3.03,0.02,4.54c-0.47,1.3-1.37,2.11-2.7,2.45c-1.44,0.12-2.87,0.11-4.31,0.01c-1.42-0.1-2.26-0.91-2.69-2.21
		C662.54,560.84,662.54,559.32,662.66,557.81z"/>
	<path class="st0" d="M909.95,443.77c-0.74,0.01-0.7-0.46-0.7-0.96c0-2.96-0.04-5.91,0.02-8.87c0.02-0.98-0.25-1.29-1.26-1.28
		c-8.04,0.04-16.07,0.02-24.11,0.02c-13.43,0-26.86,0.02-40.3-0.03c-1.14,0-1.4,0.35-1.38,1.41c0.07,2.87-0.01,5.75,0.04,8.63
		c0.01,0.84-0.25,1.1-1.09,1.09c-2.92-0.04-5.84,0.02-8.75-0.04c-0.97-0.02-1.29,0.23-1.29,1.25c0.03,28.92,0.03,57.85,0,86.77
		c0,1.01,0.29,1.27,1.28,1.27c11.59-0.03,23.19-0.03,34.78,0c0.99,0,1.17-0.33,1.17-1.23c-0.03-6.63,0-13.26-0.04-19.89
		c-0.01-0.93,0.23-1.23,1.2-1.22c4.12,0.05,8.24,0.06,12.35,0c1.02-0.01,1.35,0.2,1.34,1.3c-0.06,6.55,0,13.1-0.05,19.65
		c-0.01,1.07,0.24,1.4,1.36,1.39c11.47-0.04,22.95-0.03,34.42-0.02c0.48,0,0.95,0.06,1.43,0.09c0-29.81,0-59.62,0-89.43
		C916.9,443.88,913.43,443.71,909.95,443.77z M885.62,492.1c-6.59-0.04-13.18-0.04-19.78,0c-0.96,0.01-1.19-0.28-1.19-1.21
		c0.03-11.58,0.03-23.15,0-34.73c0-0.94,0.25-1.2,1.2-1.2c6.63,0.04,13.26,0.04,19.89,0c0.9,0,1.15,0.25,1.15,1.14
		c-0.04,5.83-0.02,11.66-0.02,17.49c0,5.75-0.02,11.5,0.02,17.25C886.91,491.85,886.61,492.1,885.62,492.1z"/>
	<path class="st0" d="M816.43,511.82c0.01-1.05-0.36-1.24-1.31-1.23c-4.16,0.05-8.31-0.01-12.47,0.04
		c-0.91,0.01-1.14-0.26-1.14-1.15c0.05-4.15,0.05-8.31,0-12.46c-0.01-0.99,0.34-1.19,1.24-1.18c4.12,0.04,8.24-0.02,12.35,0.04
		c1.07,0.02,1.33-0.3,1.33-1.34c-0.03-20.17-0.03-40.35,0-60.52c0-1.01-0.21-1.36-1.31-1.36c-25.22,0.03-50.45,0.03-75.67,0
		c-0.96,0-1.2,0.27-1.19,1.2c0.03,3.27-0.04,6.54-0.07,9.81c-0.27,0.17-0.57,0.16-0.86,0.13c-1.09,0.11-2.19-0.02-3.29,0.01
		c-1.96,0.04-3.92,0.04-5.88,0c-0.34-0.01-0.58,0.05-0.75,0.17c-0.13,0.1-0.21,0.26-0.26,0.47c-0.01,0.12-0.02,0.24-0.01,0.39
		c0.03,0.24,0,0.48,0,0.72c0,28.57,0,57.14,0,85.71c0,0.48-0.01,0.82,0,1.07c0.08,0.35,0.26,0.52,0.59,0.6c0.24,0.01,0.58,0,1.07,0
		c11.4,0.01,22.79,0,34.19,0c0.48,0,0.96,0.07,1.42-0.12c0,0,0,0,0,0c-0.01-7.07,0-14.14-0.05-21.21c-0.01-0.94,0.49-0.9,1.12-0.9
		c4.12,0.01,8.24,0.04,12.35-0.02c0.99-0.01,1.28,0.24,1.27,1.25c-0.05,6.59-0.01,13.18-0.04,19.77c-0.01,0.94,0.17,1.32,1.23,1.32
		c11.63-0.04,23.27-0.03,34.9,0c0.94,0,1.22-0.25,1.22-1.21C816.38,525.16,816.38,518.49,816.43,511.82z M782.89,490.89
		c0,0.92-0.21,1.22-1.18,1.21c-6.63-0.04-13.26-0.04-19.9,0c-0.94,0.01-1.21-0.23-1.2-1.19c0.05-5.79,0.02-11.58,0.02-17.37
		s0.02-11.58-0.02-17.37c-0.01-0.92,0.21-1.22,1.19-1.21c6.63,0.04,13.26,0.04,19.9,0c0.94-0.01,1.21,0.23,1.2,1.19
		C782.86,467.73,782.86,479.31,782.89,490.89z"/>
	<path class="st2" d="M192.33,520.55c0.01-7.93,0-15.85,0.01-23.78c0.01-0.43-0.24-0.45-0.55-0.34c-0.54,0.19-0.96,0.57-1.35,0.97
		c-3.71,3.85-7.73,7.41-11.47,11.23c-2.26,2.31-4.76,4.38-7,6.72c-0.22,0.23-0.46,0.44-0.75,0.6c-1.59,0.87-3.27-0.03-3.38-1.82
		c-0.02-0.32-0.01-0.64-0.01-0.96c0.05-5.06,0.33-10.12,0.42-15.18c0.08-4.71,0.41-9.41,0.3-14.12c-0.01-0.6,0.05-1.2,0.07-1.79
		c0.04-1.68,0.87-2.75,2.24-3.69c5.61-3.83,11.14-7.76,16.75-11.58c1.13-0.77,1.96-1.7,2-3.08c0.07-2.55,0.13-5.11-0.05-7.66
		c-0.23-0.97-0.74-1.75-1.47-2.41c-3.03-2.71-5.93-5.56-8.89-8.36c-1.3-1.23-2.6-2.47-3.91-3.7c-1.39-1.3-2.84-1.41-4.05-0.24
		c-1.26,1.22-2.63,2.32-3.87,3.57c-1.79,1.81-3.55,3.66-5.5,5.33c-1.33,1.14-2.51,2.45-3.74,3.71c-0.29,0.3-0.58,0.62-0.49,0.99
		c0.84-0.08,1.13,0.22,1.12,1.14c-0.03,14.94-0.02,29.87-0.03,44.81c0,2.91-0.07,5.83-0.06,8.74c0,0.69-0.11,0.95-0.9,0.95
		c-6.79-0.03-13.59-0.03-20.38,0c-0.77,0-0.91-0.23-0.9-0.94c0.03-17.89,0.06-35.78,0.02-53.68c0-1.1,0.54-1.01,1.22-1.01
		c0,0,0.01,0.01,0.01,0.01c0.14-0.33-0.25-0.58-0.51-0.85c-4.02-4.15-8.34-8-12.4-12.12c-1.9-1.93-3.44-1.92-5.35,0
		c-2.16,2.18-4.44,4.24-6.68,6.33c-1.86,1.74-3.59,3.63-5.58,5.23c-0.86,0.69-1.49,1.56-1.46,2.75c-0.02,2.28,0.06,4.56-0.02,6.83
		c-0.06,1.61,0.57,2.71,1.88,3.61c5.79,3.99,11.55,8.02,17.35,12.01c1.14,0.79,1.63,1.76,1.67,3.1c0.12,4.83,0.27,9.65,0.43,14.47
		c0.19,5.66,0.2,11.33,0.51,16.99c0.06,1.15-0.25,2.2-1.39,2.69c-1.15,0.5-2.17,0.16-3.05-0.73c-3.43-3.52-7.07-6.82-10.57-10.27
		c-2.73-2.69-5.51-5.33-8.24-8.03c-0.35-0.35-0.68-0.84-1.32-0.6c0,8.15,0.01,16.29-0.03,24.44c0,0.87,0.27,1.04,1.07,1.03
		c3.31-0.03,6.63,0.02,9.94,0.04c0.23,0.37,0.12,0.78,0.12,1.17c0.01,2.87,0,5.75,0.01,8.62c0,1.29,0,1.29,1.29,1.29
		c21.53,0,43.06,0,64.59-0.01c0.38,0,0.8,0.14,1.16-0.15c-0.01-3.31,0.02-6.63-0.06-9.94c-0.02-0.96,0.31-1.08,1.14-1.07
		c3.32,0.04,6.63,0.02,9.95,0.02C192.45,521.43,192.33,520.98,192.33,520.55z"/>
	<path class="st2" d="M779.1,598.53c-0.19-5.78-0.32-11.56-0.57-17.34c-0.23-5.27-4.48-9.24-9.76-9.24c-4,0-7.99,0.02-11.99-0.01
		c-1.6-0.01-2.71,0.6-3.2,2.17c-0.1,0.72-0.09,1.43,0.02,2.15c0.57,1.57,1.68,2.17,3.35,2.14c3.67-0.07,7.35,0,11.03-0.03
		c1.84-0.01,3.28,0.54,3.89,2.44c0.4,1.1,0.13,2.24,0.17,3.35c0.1,0.59,0.11,1.17-0.02,1.8c-0.87-0.14-1.72-0.28-2.57-0.42
		c-4.47,0.01-8.95,0.01-13.42,0.02c-4.36,0.25-8.01,3.02-8.79,7.33c-0.58,3.17-0.67,6.43,0.27,9.6c0.88,2.98,4.46,5.99,7.58,6.06
		c2.32,0.05,4.65-0.12,6.95,0.1c3.78,0.37,7.16-0.42,10.16-2.78c0.15-0.12,0.35-0.19,0.52-0.29c0.73,2.34,2.06,3.34,4.03,3.02
		c1.72-0.28,2.63-1.72,2.56-4.1C779.25,602.51,779.17,600.52,779.1,598.53z M770.51,599.3c-3.2,2.2-6.57,3.21-10.42,2.76
		c-1.1-0.13-2.23-0.01-3.35-0.02c-1.85-0.03-3.17-1.25-3.28-3.1c-0.07-1.19-0.07-2.4,0-3.59c0.11-2.01,1.43-3.18,3.58-3.21
		c2-0.03,3.99-0.01,5.99-0.01c1.88,0,3.75-0.01,5.63,0c2.44,0.02,3.38,1.13,3.81,3.5C772.8,597.57,771.95,598.31,770.51,599.3z"/>
	<path class="st2" d="M450.1,580.03c0-1.64,0.03-3.28-0.01-4.91c-0.03-1.57-1.43-3.03-2.97-3.17c-1.77-0.16-3.13,0.77-3.5,2.4
		c0,0.52,0.11,1.07-0.03,1.54c-0.17,0.6-0.3-0.02-0.46-0.09c-0.32-0.22-0.68-0.4-0.96-0.67c-1.81-1.75-3.94-2.87-6.44-3.25
		c-2.32,0-4.63,0.01-6.95,0.01c-4.41,0.32-10.77,5.64-10.86,10.61c-0.07,4.39-0.11,8.78,0.02,13.17c0.13,0.76,0.33,1.49,0.59,2.22
		c0.87,2.49,2.94,3.94,4.79,5.55c1.78,1.55,3.93,2.36,6.36,2.31c1.28-0.03,2.56-0.07,3.84,0.01c3.27,0.21,6.02-0.92,8.48-2.99
		c0.47-0.39,0.87-1,1.66-1.11c0,2.59,0.01,5.1-0.01,7.61c-0.01,0.67,0.05,1.33-0.1,2c-0.46,1.97-2.33,2.59-3.55,3.82
		c-0.45,0.46-1.03,0.86-1.78,0.74c-0.46,0.19-0.95,0.09-1.42,0.1c-0.03,0-0.05,0-0.08,0c-0.97,0.03-1.94,0.02-2.91,0.01
		c-0.86,0-1.73,0-2.59-0.01c-2.65,0.04-5.3,0.05-7.95,0.07c-1.12,0.36-2.01,0.94-2.21,2.21c-0.01,0.56-0.01,1.11-0.02,1.67
		c0.37,1.55,1.3,2.44,2.95,2.47c4.79,0,9.59,0,14.38-0.01c2.68-0.23,4.89-1.42,6.97-3.09c3.2-2.57,4.88-5.63,4.81-9.88
		C449.98,599.6,450.1,589.81,450.1,580.03z M442.42,593.94c-1.73,1.48-3.49,2.93-5.2,4.42c-1.47,1.28-3.23,0.9-4.92,0.96
		c-0.8,0-1.6-0.01-2.4,0c-0.8,0.02-1.5-0.24-2.1-0.74c-0.85-0.72-1.71-1.45-2.51-2.23c-0.65-0.63-0.97-1.42-0.96-2.37
		c0.02-3.44,0.01-6.87,0.01-10.31c0-1.01,0.39-1.8,1.04-2.58c2.77-3.3,6.43-3.04,10.13-2.65c0.59,0.06,1.09,0.45,1.56,0.85
		c1.73,1.48,3.46,2.95,5.2,4.42c0.94,0.8,1.4,1.8,1.39,3.05c-0.02,1.48-0.02,2.96,0,4.43C443.68,592.33,443.26,593.22,442.42,593.94
		z"/>
	<path class="st2" d="M497.15,600.51c-0.1-0.41-0.12-0.82-0.12-1.24c-0.06-0.79-0.09-1.59-0.05-2.39c-0.02-1.19-0.04-2.38-0.07-3.57
		c-0.1-0.41-0.12-0.82-0.12-1.24c-0.06-0.79-0.09-1.59-0.05-2.38c-0.02-1.19-0.04-2.38-0.07-3.57c-0.1-0.41-0.12-0.82-0.12-1.24
		c-0.06-0.79-0.09-1.59-0.05-2.38c-0.11-0.86-0.14-1.72-0.27-2.59c-0.67-4.3-4.45-7.8-8.97-7.94c-4.22-0.13-8.45-0.04-12.67-0.02
		c-1.83,0.01-2.6,0.63-3.16,2.4c0,0.56,0.01,1.11,0.01,1.67c0.39,1.48,1.49,2.42,3.25,2.39c3.75-0.08,7.5-0.01,11.25-0.03
		c1.8-0.01,3.18,0.58,3.8,2.41c0.36,0.62,0.14,1.29,0.17,1.94c0.08,1.05,0.43,2.29-0.15,3.07c-0.36,0.49-1.59-0.19-2.44-0.25
		c0,0,0,0,0,0c0,0,0,0,0,0c-4.47,0.01-8.95,0.01-13.42,0.02c-4.24,0.4-7.15,2.52-8.63,6.57c-0.86,2.35-0.25,4.77-0.46,7.15
		c-0.11,1.24,0.26,2.37,0.7,3.51c1.23,3.21,4.76,5.99,8.43,5.85c2.19-0.08,4.41-0.18,6.59,0.02c3.31,0.31,6.25-0.38,8.86-2.43
		c0.12-0.1,0.28-0.15,0.41-0.24c0.52-0.36,0.84-0.56,0.97,0.38c0.15,1.16,1.59,2.22,2.77,2.24c2.01,0.05,2.79-0.51,3.69-2.64
		c0-0.63,0-1.27,0-1.9C497.2,602.89,497.17,601.7,497.15,600.51z M488.35,599.34c-3.21,2.1-6.51,3.18-10.34,2.71
		c-1.1-0.13-2.24,0-3.35-0.02c-2.01-0.04-3.25-1.29-3.28-3.32c-0.02-1.04-0.01-2.08,0-3.12c0.02-2.14,1.25-3.38,3.42-3.47
		c0.08,0,0.16,0,0.24,0c1.92,0,3.84,0,5.76,0c1.96,0,3.92-0.02,5.88,0c2.22,0.03,3.23,1.14,3.63,3.29
		C490.66,597.37,489.99,598.27,488.35,599.34z"/>
	<path class="st2" d="M872.58,581.33c-0.22-5.41-4.41-9.38-9.82-9.38c-3.88,0-7.76,0-11.63,0c-2.16,0-3.68,1.37-3.64,3.26
		c0.04,1.86,1.54,3.17,3.63,3.17c3.84,0,7.68-0.01,11.51,0.01c2.15,0.01,3.41,1.26,3.48,3.41c0.03,0.84-0.01,1.68,0.01,2.52
		c0.04,1.65,0.04,1.64-1.51,1.38c-0.39-0.07-0.79-0.11-1.19-0.11c-4.4,0-8.8-0.07-13.19,0.03c-4.56,0.11-8.31,3.43-9.07,7.9
		c-0.37,2.18-0.32,4.4-0.1,6.57c0.51,4.98,4.59,8.53,9.6,8.54c1.76,0,3.53-0.15,5.27,0.03c3.86,0.4,7.33-0.38,10.39-2.83
		c0.12-0.1,0.28-0.15,0.48-0.25c0.6,2.3,1.98,3.33,3.96,3.03c1.67-0.25,2.66-1.7,2.6-3.84c-0.04-1.4-0.08-2.79-0.12-4.19
		C873.02,594.17,872.84,587.75,872.58,581.33z M864.54,599.31c-3.21,2.18-6.58,3.19-10.43,2.74c-1.06-0.12-2.15-0.01-3.23-0.02
		c-2.02-0.02-3.34-1.32-3.39-3.36c-0.02-1-0.02-1.99,0-2.99c0.03-2.2,1.27-3.49,3.49-3.54c1.99-0.05,3.99-0.01,5.99-0.01
		c1.92,0,3.83-0.01,5.75,0c2.43,0.02,3.39,1.15,3.79,3.52C866.83,597.59,865.99,598.32,864.54,599.31z"/>
	<path class="st2" d="M920.19,581.75c-1.11-5.25-6.74-9.84-12.09-9.84c-2.48,0-4.95,0.05-7.43-0.01c-2.59-0.07-4.88,0.72-6.93,2.22
		c-3.63,2.67-5.93,5.99-5.67,10.8c0.2,3.74,0.04,7.5,0.04,11.25c0,5.64,4.9,11.37,10.5,12.23c2.78,0.43,5.58,0.07,8.37,0.2
		c3.57,0.17,6.5-1.21,9.15-3.47c2.01-1.73,3.36-3.86,4.25-6.33c0-5.59,0-11.19,0-16.78C920.31,581.93,920.21,581.85,920.19,581.75z
		 M912.52,599.48c-0.63,0.49-1.2,1.05-1.81,1.57c-0.89,0.75-1.91,1.12-3.08,1.11c-2.32-0.01-4.64-0.01-6.96,0
		c-1.13,0.01-2-0.49-2.94-1.11c-2.55-1.69-3.4-3.93-3.19-6.93c0.23-3.26,0.07-6.55,0.04-9.82c-0.01-1.41,0.55-2.44,1.55-3.45
		c1.94-1.97,4.16-2.86,6.9-2.55c0.75,0.08,1.53,0.1,2.28,0c2.87-0.39,5.22,0.56,7.26,2.56c0.79,0.77,1.34,1.57,1.34,2.68
		c0.01,2.24,0,4.47,0,6.71c0.01,0,0.02,0,0.03,0c0,2.08-0.02,4.15,0.01,6.23C913.96,597.72,913.5,598.71,912.52,599.48z"/>
	<path class="st2" d="M296.33,511.77c0-0.96-0.26-1.19-1.19-1.18c-4.19,0.05-8.38-0.01-12.58,0.05c-0.98,0.01-1.17-0.29-1.15-1.19
		c0.05-3.03,0-6.06,0.03-9.1c0.01-1.47-0.16-2.94,0.11-4.4c0.37-0.24,0.78-0.12,1.17-0.12c4.15-0.01,8.31,0,12.46-0.01
		c0.38,0,0.8,0.14,1.15-0.15c-0.01-0.48-0.03-0.96-0.03-1.44c0-19.98,0-39.95,0-59.93c0-1.61,0-1.61-1.67-1.61
		c-24.71,0-49.41,0-74.12,0c-2.34,0-2.31,0-2.35,2.39c-0.04,2.87,0.16,5.74-0.11,8.6c-0.41,0.24-0.86,0.11-1.29,0.12
		c-3.22,0.07-6.45-0.11-9.67,0.1c0,29.67,0,59.33,0,89c0.3,0.15,0.63,0.09,0.94,0.09c11.77,0,23.54,0,35.31,0
		c0.32,0,0.64,0.06,0.94-0.09c0-7.05,0-14.09,0-21.14c0-0.31,0.06-0.63,0.09-0.94c0.17-0.14,0.37-0.13,0.57-0.13
		c4.47,0,8.94,0,13.4,0c0.2,0,0.4-0.01,0.57,0.13l0,0c0.24,0.41,0.12,0.86,0.12,1.29c0.01,6.55,0.03,13.1-0.02,19.65
		c-0.01,1.01,0.29,1.25,1.26,1.25c11.63-0.03,23.26-0.02,34.9-0.03c0.39,0,0.8,0.14,1.16-0.15
		C296.33,525.81,296.3,518.79,296.33,511.77z M261.5,492.09c-6.55-0.05-13.11-0.06-19.67,0.01c-1.12,0.01-1.29-0.34-1.29-1.35
		c0.03-11.46,0.03-22.93,0-34.39c0-1.04,0.18-1.42,1.34-1.41c6.55,0.06,13.11,0.05,19.67,0.01c0.97-0.01,1.28,0.2,1.27,1.22
		c-0.05,5.79-0.03,11.58-0.03,17.38c0,5.75-0.04,11.5,0.03,17.25C262.84,491.92,262.51,492.1,261.5,492.09z"/>
</g>
</svg>
