<?xml version="1.0" encoding="utf-8"?>
<!-- Generator: Adobe Illustrator 25.2.1, SVG Export Plug-In . SVG Version: 6.00 Build 0)  -->
<svg version="1.1" id="Camada_1" xmlns="http://www.w3.org/2000/svg" xmlns:xlink="http://www.w3.org/1999/xlink" x="0px" y="0px"
	 viewBox="0 0 100 100" style="enable-background:new 0 0 100 100;" xml:space="preserve">
<style type="text/css">
	.st0{fill:#003F7A;}
	.st1{fill:#008137;}
</style>
<g>
	<g>
		<g>
			<g>
				<path class="st0" d="M43.38,46.52c-2.58,1.86-5.39,3.47-8.43,4.78c-1.5,0.65-3.12,1.1-4.82,1.31c-1.21,0.15-2.44,0.23-3.69,0.23
					v9.92h24.8V40.84L43.38,46.52L43.38,46.52z"/>
			</g>
			<g>
				<path class="st0" d="M8.09,46.52c2.58,1.86,5.39,3.47,8.43,4.78c1.5,0.65,3.12,1.1,4.82,1.31c1.21,0.15,2.44,0.23,3.69,0.23
					v9.92H0.22V40.84L8.09,46.52L8.09,46.52z"/>
			</g>
			<g>
				<path class="st0" d="M26.44,37.25v14.17c1.19,0,2.36-0.07,3.52-0.22l0,0c1.57-0.2,3.05-0.61,4.43-1.2
					c2.94-1.27,5.66-2.83,8.16-4.63l0,0l8.7-6.28v-1.85H26.44z"/>
			</g>
			<g>
				<path class="st0" d="M25.02,37.25v14.17c-1.19,0-2.36-0.07-3.52-0.22l0,0c-1.57-0.2-3.05-0.61-4.43-1.2
					c-2.94-1.27-5.66-2.83-8.16-4.63l0,0l-8.7-6.28v-1.85H25.02z"/>
			</g>
		</g>
	</g>
	<g>
		<g>
			<g>
				<path class="st1" d="M43.38,46.52c-2.58,1.86-5.39,3.47-8.43,4.78c-1.5,0.65-3.12,1.1-4.82,1.31c-1.21,0.15-2.44,0.23-3.69,0.23
					v9.92h24.8V40.84L43.38,46.52L43.38,46.52z"/>
			</g>
			<g>
				<path class="st1" d="M8.09,46.52c2.58,1.86,5.39,3.47,8.43,4.78c1.5,0.65,3.12,1.1,4.82,1.31c1.21,0.15,2.44,0.23,3.69,0.23
					v9.92H0.22V40.84L8.09,46.52L8.09,46.52z"/>
			</g>
			<g>
				<path class="st0" d="M26.44,37.25v14.17c1.19,0,2.36-0.07,3.52-0.22l0,0c1.57-0.2,3.05-0.61,4.43-1.2
					c2.94-1.27,5.66-2.83,8.16-4.63l0,0l8.7-6.28v-1.85H26.44z"/>
			</g>
			<g>
				<path class="st0" d="M25.02,37.25v14.17c-1.19,0-2.36-0.07-3.52-0.22l0,0c-1.57-0.2-3.05-0.61-4.43-1.2
					c-2.94-1.27-5.66-2.83-8.16-4.63l0,0l-8.7-6.28v-1.85H25.02z"/>
			</g>
		</g>
	</g>
	<g>
		<g>
			<g>
				<g>
					<path class="st0" d="M61.17,51.74v-8.82h3.24v8.58c0,2.23,1.03,3.26,2.86,3.26c1.87,0,2.8-1.07,2.8-3.37v-8.48h3.26v8.68
						c0,3.91-2.33,5.7-6.12,5.7C63.58,57.29,61.17,55.65,61.17,51.74z"/>
				</g>
			</g>
			<g>
				<g>
					<path class="st0" d="M82.95,57.09v-6.37c0-1.52-0.43-2.29-1.68-2.29c-1.3,0-2.03,1.11-2.03,2.9v5.76h-3.18v-8.35
						c0-1.12-0.04-1.91-0.06-2.51h3.04c0.04,0.38,0.14,1.62,0.16,2.23c0.55-1.72,1.91-2.43,3.47-2.43c2.74,0,3.51,1.84,3.51,3.87
						v7.2H82.95z"/>
				</g>
			</g>
			<g>
				<g>
					<path class="st0" d="M94.28,57.09h-5.39V42.92h4.91c3.29,0,5.17,1.2,5.17,3.59c0,1.6-0.85,2.66-2.55,3.06
						c2.17,0.28,3.37,1.58,3.37,3.47C99.78,55.89,97.47,57.09,94.28,57.09z M93.49,45.23h-1.42v3.3h1.44c1.54,0,2.21-0.51,2.21-1.66
						C95.72,45.67,95.01,45.23,93.49,45.23z M93.88,50.95h-1.8v3.79h1.91c1.5,0,2.51-0.49,2.51-1.95
						C96.49,51.35,95.32,50.95,93.88,50.95z"/>
				</g>
			</g>
		</g>
	</g>
</g>
</svg>
